<svg width="118" height="72" viewBox="0 0 118 72" fill="none" xmlns="http://www.w3.org/2000/svg">
<path d="M10.4863 2.19727C10.9733 2.25456 11.3815 2.29753 11.7109 2.32617C12.0547 2.34049 12.334 2.36198 12.5488 2.39062C12.8066 2.41927 13.0072 2.43359 13.1504 2.43359C13.3079 2.44792 13.5443 2.44076 13.8594 2.41211C14.1315 2.38346 14.4967 2.34766 14.9551 2.30469C15.4277 2.26172 16.0293 2.19727 16.7598 2.11133C16.4303 2.39779 16.1654 2.67708 15.9648 2.94922C15.7786 3.20703 15.6354 3.4362 15.5352 3.63672C15.4062 3.88021 15.3275 4.10938 15.2988 4.32422C15.2415 4.66797 15.1914 5.14062 15.1484 5.74219C15.1198 6.32943 15.0911 6.97396 15.0625 7.67578C15.0339 8.3776 15.0195 9.10091 15.0195 9.8457C15.0195 10.5905 15.0267 11.2995 15.041 11.9727C15.0697 12.6315 15.1126 13.2188 15.1699 13.7344C15.2415 14.25 15.3275 14.6224 15.4277 14.8516C15.571 15.1094 15.7214 15.3672 15.8789 15.625C16.0221 15.8398 16.194 16.0618 16.3945 16.291C16.5951 16.5202 16.8242 16.7064 17.082 16.8496C16.237 16.8066 15.5638 16.7852 15.0625 16.7852H14.2891C14.0599 16.7852 13.7663 16.7995 13.4082 16.8281C13.1074 16.8568 12.7279 16.8854 12.2695 16.9141C11.8112 16.9427 11.2598 16.9857 10.6152 17.043C10.9447 16.6849 11.2025 16.3411 11.3887 16.0117C11.5749 15.6823 11.7253 15.3958 11.8398 15.1523C11.9688 14.8659 12.0547 14.5938 12.0977 14.3359C12.1549 13.9635 12.1979 13.5052 12.2266 12.9609C12.2695 12.4023 12.2982 11.8079 12.3125 11.1777C12.3268 10.5332 12.3268 9.88151 12.3125 9.22266C12.3125 8.54948 12.2982 7.90495 12.2695 7.28906C12.2409 6.67318 12.1979 6.11458 12.1406 5.61328C12.0977 5.11198 12.0404 4.71094 11.9688 4.41016C11.9258 4.22396 11.8398 4.01628 11.7109 3.78711C11.5964 3.58659 11.4388 3.35742 11.2383 3.09961C11.0521 2.82747 10.8014 2.52669 10.4863 2.19727ZM17.082 1.5957C17.5404 1.61003 17.9414 1.61719 18.2852 1.61719C18.6289 1.60286 18.9082 1.5957 19.123 1.5957H19.7461C19.9036 1.58138 20.097 1.57422 20.3262 1.57422C20.5267 1.57422 20.7702 1.57422 21.0566 1.57422C21.3431 1.57422 21.6725 1.58138 22.0449 1.5957C22.1595 1.99674 22.2884 2.39062 22.4316 2.77734C22.5892 3.14974 22.7253 3.48633 22.8398 3.78711C22.9831 4.14518 23.1263 4.48177 23.2695 4.79688C23.4128 5.11198 23.5846 5.49154 23.7852 5.93555C23.957 6.30794 24.1647 6.76628 24.4082 7.31055C24.6517 7.84049 24.9382 8.44922 25.2676 9.13672C25.4251 8.69271 25.5684 8.28451 25.6973 7.91211C25.8405 7.53971 25.9622 7.21745 26.0625 6.94531C26.1771 6.63021 26.2702 6.34375 26.3418 6.08594C26.4134 5.82812 26.4922 5.51302 26.5781 5.14062C26.6497 4.82552 26.7285 4.44596 26.8145 4.00195C26.9147 3.55794 27.015 3.04232 27.1152 2.45508C27.5306 2.45508 27.903 2.45508 28.2324 2.45508C28.5618 2.45508 28.8483 2.44792 29.0918 2.43359C29.3639 2.43359 29.6074 2.42643 29.8223 2.41211C30.0514 2.41211 30.3594 2.39779 30.7461 2.36914C31.0755 2.34049 31.5124 2.31901 32.0566 2.30469C32.6152 2.27604 33.3027 2.24023 34.1191 2.19727C33.8184 2.41211 33.5749 2.62695 33.3887 2.8418C33.2168 3.04232 33.0807 3.22135 32.9805 3.37891C32.8659 3.5651 32.7943 3.74414 32.7656 3.91602C32.737 4.05924 32.7083 4.38867 32.6797 4.9043C32.6654 5.41992 32.6439 6.03581 32.6152 6.75195C32.6009 7.45378 32.5866 8.20573 32.5723 9.00781C32.5723 9.8099 32.5794 10.569 32.5938 11.2852C32.6081 12.0013 32.6296 12.6243 32.6582 13.1543C32.7012 13.6699 32.7585 13.9993 32.8301 14.1426C32.9303 14.3145 33.0664 14.515 33.2383 14.7441C33.3958 14.9447 33.5964 15.1738 33.8398 15.4316C34.0977 15.6895 34.4342 15.9759 34.8496 16.291C34.1908 16.3197 33.6393 16.3411 33.1953 16.3555C32.7656 16.3698 32.4076 16.3841 32.1211 16.3984C31.7917 16.4128 31.5267 16.4199 31.3262 16.4199C31.1113 16.4199 30.8177 16.4271 30.4453 16.4414C30.1159 16.4557 29.679 16.4772 29.1348 16.5059C28.5905 16.5202 27.8887 16.5488 27.0293 16.5918C27.2298 16.3626 27.416 16.1335 27.5879 15.9043C27.7598 15.6751 27.903 15.4674 28.0176 15.2812C28.1608 15.0664 28.2826 14.8587 28.3828 14.6582C28.4831 14.3861 28.5618 13.8919 28.6191 13.1758C28.6764 12.5599 28.7194 11.679 28.748 10.5332C28.7767 9.37305 28.7767 7.81901 28.748 5.87109C28.4759 6.3151 28.2324 6.75911 28.0176 7.20312C27.8171 7.63281 27.638 8.02669 27.4805 8.38477C27.3086 8.80013 27.151 9.20117 27.0078 9.58789C26.8646 9.98893 26.7142 10.4329 26.5566 10.9199C26.4134 11.3353 26.2415 11.8294 26.041 12.4023C25.8548 12.9753 25.64 13.6055 25.3965 14.293L24.5801 14.3359C24.4655 13.763 24.3509 13.2474 24.2363 12.7891C24.1217 12.3164 24.0072 11.9154 23.8926 11.5859C23.7637 11.1992 23.6348 10.8555 23.5059 10.5547C23.3626 10.2539 23.2051 9.91732 23.0332 9.54492C22.8757 9.22982 22.6823 8.85742 22.4531 8.42773C22.2383 7.99805 21.9876 7.51823 21.7012 6.98828C21.5579 8.44922 21.472 9.63802 21.4434 10.5547C21.4147 11.457 21.4147 12.1589 21.4434 12.6602C21.472 13.2617 21.515 13.6986 21.5723 13.9707C21.6582 14.2142 21.7943 14.4863 21.9805 14.7871C22.138 15.0449 22.3529 15.3529 22.625 15.7109C22.9115 16.0547 23.2767 16.4414 23.7207 16.8711C23.4056 16.8711 23.0762 16.8711 22.7324 16.8711C22.3887 16.8711 22.0736 16.8783 21.7871 16.8926C21.4434 16.9069 21.1068 16.9141 20.7773 16.9141C20.4336 16.9284 20.0326 16.9499 19.5742 16.9785C19.1732 17.0072 18.6934 17.0358 18.1348 17.0645C17.5762 17.0931 16.9316 17.1432 16.2012 17.2148C16.5163 17.0143 16.7741 16.821 16.9746 16.6348C17.1751 16.4342 17.3327 16.2552 17.4473 16.0977C17.5905 15.9115 17.6979 15.7253 17.7695 15.5391C17.8125 15.4245 17.8483 15.1738 17.877 14.7871C17.9199 14.4004 17.9557 13.9277 17.9844 13.3691C18.0273 12.8105 18.056 12.1875 18.0703 11.5C18.099 10.8125 18.1204 10.1178 18.1348 9.41602C18.1634 8.69987 18.1849 8.00521 18.1992 7.33203C18.2135 6.64453 18.2207 6.02865 18.2207 5.48438C18.235 4.92578 18.2422 4.46029 18.2422 4.08789C18.2422 3.71549 18.2422 3.47917 18.2422 3.37891C18.1992 3.16406 18.1348 2.94922 18.0488 2.73438C17.9772 2.54818 17.8626 2.35482 17.7051 2.1543C17.5475 1.95378 17.3398 1.76758 17.082 1.5957ZM33.7539 1.61719C34.2982 1.74609 34.7852 1.84635 35.2148 1.91797C35.6589 1.97526 36.0312 2.01823 36.332 2.04688C36.6901 2.08984 37.0052 2.10417 37.2773 2.08984C37.6211 2.07552 38.0508 2.02539 38.5664 1.93945C39.082 1.85352 39.6263 1.76758 40.1992 1.68164C40.7721 1.5957 41.3379 1.52409 41.8965 1.4668C42.4551 1.40951 42.9421 1.40234 43.3574 1.44531C43.7728 1.48828 44.2096 1.58854 44.668 1.74609C45.1263 1.88932 45.556 2.08984 45.957 2.34766C46.3581 2.59115 46.7018 2.89193 46.9883 3.25C47.2891 3.60807 47.4753 4.02344 47.5469 4.49609C47.6185 4.95443 47.5755 5.44857 47.418 5.97852C47.2604 6.49414 47.0098 7.0026 46.666 7.50391C46.3223 7.99089 45.8926 8.44206 45.377 8.85742C44.8613 9.27279 44.2884 9.60938 43.6582 9.86719C43.1569 10.0534 42.6126 10.1966 42.0254 10.2969C41.5241 10.3828 40.9368 10.4401 40.2637 10.4688C39.6048 10.4831 38.903 10.4115 38.1582 10.2539C38.0579 10.6693 38.0007 11.056 37.9863 11.4141C37.9863 11.7578 38.0007 12.0658 38.0293 12.3379C38.0723 12.653 38.1296 12.9395 38.2012 13.1973C38.2871 13.4551 38.3945 13.7559 38.5234 14.0996C38.638 14.3861 38.7669 14.737 38.9102 15.1523C39.0677 15.5534 39.2539 16.0046 39.4688 16.5059C39.2109 16.5059 38.9603 16.513 38.7168 16.5273C38.4733 16.5273 38.2513 16.5345 38.0508 16.5488C37.8216 16.5632 37.6068 16.5775 37.4062 16.5918C37.1771 16.6061 36.9193 16.6348 36.6328 16.6777C36.3893 16.7064 36.0814 16.7493 35.709 16.8066C35.3509 16.8639 34.9427 16.9355 34.4844 17.0215C34.7852 16.5918 35.0215 16.1979 35.1934 15.8398C35.3796 15.4674 35.5156 15.1452 35.6016 14.873C35.7018 14.5579 35.7663 14.2715 35.7949 14.0137C35.8092 13.7988 35.8092 13.4193 35.7949 12.875C35.7949 12.3307 35.7878 11.7005 35.7734 10.9844C35.7591 10.2682 35.7376 9.51628 35.709 8.72852C35.6803 7.94076 35.6445 7.20312 35.6016 6.51562C35.5586 5.8138 35.5085 5.21224 35.4512 4.71094C35.4082 4.20964 35.3652 3.88021 35.3223 3.72266C35.265 3.53646 35.1647 3.33594 35.0215 3.12109C34.9069 2.9349 34.7422 2.72005 34.5273 2.47656C34.3268 2.21875 34.069 1.93229 33.7539 1.61719ZM38.2012 5.84961C38.1868 5.99284 38.1797 6.14323 38.1797 6.30078C38.1797 6.60156 38.2012 6.98828 38.2441 7.46094C38.3444 7.70443 38.4661 7.90495 38.6094 8.0625C38.7669 8.22005 38.9316 8.3418 39.1035 8.42773C39.2897 8.51367 39.4759 8.57096 39.6621 8.59961C39.8483 8.62826 40.0345 8.64258 40.2207 8.64258C40.6504 8.62826 41.1016 8.52799 41.5742 8.3418C42.2044 8.06966 42.6484 7.68294 42.9062 7.18164C43.1641 6.68034 43.3001 6.16471 43.3145 5.63477C43.3288 5.10482 43.2357 4.61784 43.0352 4.17383C42.849 3.72982 42.6198 3.42904 42.3477 3.27148C42.1185 3.17122 41.8249 3.12826 41.4668 3.14258C41.1517 3.1569 40.7578 3.23568 40.2852 3.37891C39.8125 3.52214 39.2324 3.77995 38.5449 4.15234C38.4733 4.41016 38.416 4.63932 38.373 4.83984C38.3301 5.04036 38.2943 5.2194 38.2656 5.37695C38.237 5.54883 38.2155 5.70638 38.2012 5.84961ZM46.4727 2.32617C47.4753 2.35482 48.306 2.3763 48.9648 2.39062C49.638 2.39062 50.1823 2.39062 50.5977 2.39062H51.7363H58.1387C58.1673 2.67708 58.1888 2.95638 58.2031 3.22852C58.2318 3.48633 58.2461 3.71549 58.2461 3.91602C58.2461 4.15951 58.2389 4.38151 58.2246 4.58203C58.2103 4.78255 58.1888 4.9974 58.1602 5.22656C58.1315 5.42708 58.1029 5.64193 58.0742 5.87109C58.0456 6.10026 57.9954 6.33659 57.9238 6.58008C57.7233 5.80664 57.4512 5.2194 57.1074 4.81836C56.778 4.41732 56.4414 4.1237 56.0977 3.9375C55.6966 3.72266 55.2741 3.60807 54.8301 3.59375C54.2428 3.6224 53.7845 3.67253 53.4551 3.74414C53.1257 3.81576 52.8678 3.91602 52.6816 4.04492C52.4954 4.17383 52.3522 4.32422 52.252 4.49609C52.166 4.65365 52.0729 4.83268 51.9727 5.0332C51.8867 5.20508 51.8079 5.47005 51.7363 5.82812C51.6647 6.12891 51.5931 6.53711 51.5215 7.05273C51.4642 7.56836 51.3997 8.23438 51.3281 9.05078C51.7148 8.9362 52.0228 8.82878 52.252 8.72852C52.4954 8.62826 52.6888 8.54232 52.832 8.4707C52.9896 8.38477 53.1042 8.30599 53.1758 8.23438C53.2331 8.14844 53.319 7.99089 53.4336 7.76172C53.5195 7.5612 53.6341 7.28906 53.7773 6.94531C53.9349 6.60156 54.1211 6.12891 54.3359 5.52734C54.3646 6.1862 54.3789 6.73763 54.3789 7.18164C54.3789 7.61133 54.3861 7.96224 54.4004 8.23438C54.4004 8.54948 54.4076 8.80013 54.4219 8.98633V9.80273C54.4219 10.1035 54.4219 10.5117 54.4219 11.0273C54.4362 11.5286 54.4577 12.166 54.4863 12.9395C54.3145 12.4095 54.1569 11.9941 54.0137 11.6934C53.8848 11.3783 53.7702 11.1419 53.6699 10.9844C53.5553 10.7982 53.4551 10.6693 53.3691 10.5977C53.2689 10.569 53.1328 10.5404 52.9609 10.5117C52.8034 10.4974 52.6029 10.4902 52.3594 10.4902C52.1302 10.4902 51.8366 10.526 51.4785 10.5977C51.4355 11.3854 51.4284 12.0228 51.457 12.5098C51.5 12.9824 51.5573 13.3477 51.6289 13.6055C51.7005 13.9062 51.7865 14.1211 51.8867 14.25C52.0156 14.3789 52.2734 14.4863 52.6602 14.5723C53.0469 14.6439 53.4837 14.6725 53.9707 14.6582C54.472 14.6296 54.9805 14.5436 55.4961 14.4004C56.0117 14.2572 56.4701 14.0208 56.8711 13.6914C57.1719 13.4193 57.4941 13.0755 57.8379 12.6602C58.1243 12.3021 58.4395 11.8509 58.7832 11.3066C59.1413 10.7624 59.4922 10.1035 59.8359 9.33008C59.7786 9.97461 59.7357 10.5117 59.707 10.9414C59.6927 11.3568 59.6712 11.6934 59.6426 11.9512C59.6139 12.252 59.5924 12.4811 59.5781 12.6387C59.5781 12.8105 59.5566 13.054 59.5137 13.3691C59.485 13.6413 59.4349 14.0137 59.3633 14.4863C59.306 14.9447 59.2272 15.5319 59.127 16.248C58.4538 16.2624 57.8164 16.2767 57.2148 16.291C56.6133 16.291 56.0833 16.2982 55.625 16.3125C55.0807 16.3268 54.5794 16.3411 54.1211 16.3555C53.6484 16.3555 53.1257 16.377 52.5527 16.4199C52.0514 16.4486 51.457 16.4915 50.7695 16.5488C50.0964 16.6061 49.3516 16.6849 48.5352 16.7852C48.6068 15.8112 48.6569 14.8945 48.6855 14.0352C48.7285 13.1615 48.7572 12.3952 48.7715 11.7363C48.7858 10.9629 48.7858 10.2467 48.7715 9.58789C48.8431 7.94076 48.8145 6.60872 48.6855 5.5918C48.5566 4.57487 48.4062 3.92318 48.2344 3.63672C48.1484 3.53646 48.0267 3.41471 47.8691 3.27148C47.7402 3.1569 47.5612 3.02083 47.332 2.86328C47.1029 2.70573 46.8164 2.52669 46.4727 2.32617ZM59.7285 1.31641C60.1868 1.38802 60.6022 1.45247 60.9746 1.50977C61.347 1.55273 61.6693 1.58854 61.9414 1.61719C62.2565 1.66016 62.5358 1.69596 62.7793 1.72461C63.0801 1.76758 63.5312 1.71745 64.1328 1.57422C64.7344 1.41667 65.3932 1.27344 66.1094 1.14453C66.8398 1.0013 67.5846 0.922526 68.3438 0.908203C69.1029 0.879557 69.7975 1.01562 70.4277 1.31641C71.0579 1.61719 71.5736 1.91797 71.9746 2.21875C72.3757 2.51953 72.6908 2.8418 72.9199 3.18555C73.1634 3.51497 73.3353 3.86589 73.4355 4.23828C73.5358 4.61068 73.5931 5.01888 73.6074 5.46289C73.5931 6.12174 73.4355 6.75911 73.1348 7.375C73.0059 7.63281 72.834 7.90495 72.6191 8.19141C72.4186 8.46354 72.168 8.72852 71.8672 8.98633C71.5664 9.24414 71.2083 9.48763 70.793 9.7168C70.3919 9.94596 69.9193 10.1465 69.375 10.3184C69.9049 10.4759 70.3418 10.6621 70.6855 10.877C71.0436 11.0918 71.3301 11.2923 71.5449 11.4785C71.8027 11.7077 71.9961 11.9297 72.125 12.1445C72.2826 12.4453 72.39 12.7031 72.4473 12.918C72.5046 13.1328 72.5404 13.3405 72.5547 13.541C72.5833 13.7272 72.6191 13.9206 72.6621 14.1211C72.7051 14.3216 72.7982 14.5508 72.9414 14.8086C73.056 15.0091 73.1921 15.2168 73.3496 15.4316C73.4928 15.6178 73.6576 15.8184 73.8438 16.0332C74.0443 16.248 74.2878 16.4557 74.5742 16.6562C74.1732 16.6706 73.8008 16.6777 73.457 16.6777C73.1276 16.6777 72.8411 16.6777 72.5977 16.6777C72.3112 16.6777 72.0391 16.6706 71.7812 16.6562C71.5234 16.6419 71.2012 16.6348 70.8145 16.6348C70.485 16.6348 70.0625 16.6348 69.5469 16.6348C69.0456 16.6348 68.4368 16.6419 67.7207 16.6562C68.0358 16.4128 68.2936 16.1693 68.4941 15.9258C68.6947 15.6823 68.8522 15.4603 68.9668 15.2598C69.0957 15.0306 69.1888 14.8086 69.2461 14.5938C69.3177 14.207 69.3249 13.806 69.2676 13.3906C69.2246 13.0326 69.11 12.6387 68.9238 12.209C68.7376 11.765 68.4368 11.321 68.0215 10.877C67.6061 10.9486 67.2552 11.0059 66.9688 11.0488C66.6966 11.0775 66.4603 11.1061 66.2598 11.1348C66.0306 11.1634 65.8444 11.1849 65.7012 11.1992C65.5723 11.2135 65.429 11.2279 65.2715 11.2422C65.1426 11.2565 64.9993 11.278 64.8418 11.3066C64.6986 11.321 64.5625 11.3424 64.4336 11.3711C64.4049 11.987 64.4049 12.5241 64.4336 12.9824C64.4622 13.4264 64.498 13.7988 64.541 14.0996C64.5983 14.4577 64.6628 14.7656 64.7344 15.0234C64.806 15.2812 64.9062 15.5319 65.0352 15.7754C65.1354 15.9759 65.2643 16.1908 65.4219 16.4199C65.5794 16.6348 65.7585 16.8138 65.959 16.957C65.5866 16.957 65.2285 16.957 64.8848 16.957C64.5553 16.957 64.2546 16.9499 63.9824 16.9355C63.6673 16.9355 63.3665 16.9284 63.0801 16.9141C62.7936 16.8997 62.4714 16.8926 62.1133 16.8926C61.8125 16.8926 61.4544 16.8926 61.0391 16.8926C60.638 16.8926 60.2012 16.8997 59.7285 16.9141C60.1009 16.5273 60.3945 16.1979 60.6094 15.9258C60.8242 15.6536 60.9889 15.4245 61.1035 15.2383C61.2324 15.0378 61.3112 14.8659 61.3398 14.7227C61.3685 14.4935 61.39 14.0853 61.4043 13.498C61.4329 12.8965 61.4544 12.209 61.4688 11.4355C61.4831 10.6621 61.4902 9.85286 61.4902 9.00781C61.4902 8.16276 61.4831 7.375 61.4688 6.64453C61.4544 5.89974 61.4401 5.26237 61.4258 4.73242C61.4115 4.20247 61.3971 3.86589 61.3828 3.72266C61.3398 3.46484 61.2467 3.20703 61.1035 2.94922C60.9889 2.72005 60.8242 2.46224 60.6094 2.17578C60.3945 1.88932 60.1009 1.60286 59.7285 1.31641ZM67.8496 8.87891C67.9928 8.79297 68.1146 8.70703 68.2148 8.62109C68.3151 8.53516 68.401 8.39909 68.4727 8.21289C68.5443 8.01237 68.6016 7.73307 68.6445 7.375C68.7018 7.01693 68.7663 6.52995 68.8379 5.91406C68.8952 5.29818 68.8522 4.78971 68.709 4.38867C68.5801 3.98763 68.401 3.67253 68.1719 3.44336C67.957 3.19987 67.7135 3.03516 67.4414 2.94922C67.1836 2.84896 66.9544 2.79883 66.7539 2.79883C66.3529 2.79883 65.959 2.92057 65.5723 3.16406C65.1855 3.40755 64.8919 3.73698 64.6914 4.15234C64.6198 4.33854 64.5553 4.64648 64.498 5.07617C64.4551 5.44857 64.4264 5.96419 64.4121 6.62305C64.3978 7.2819 64.4193 8.14844 64.4766 9.22266C65.0208 9.30859 65.5007 9.3444 65.916 9.33008C66.3314 9.30143 66.6823 9.2513 66.9688 9.17969C67.3125 9.10807 67.6061 9.00781 67.8496 8.87891ZM74.3594 2.19727C74.8464 2.25456 75.2546 2.29753 75.584 2.32617C75.9277 2.34049 76.207 2.36198 76.4219 2.39062C76.6797 2.41927 76.8802 2.43359 77.0234 2.43359C77.181 2.44792 77.4173 2.44076 77.7324 2.41211C78.0046 2.38346 78.3698 2.34766 78.8281 2.30469C79.3008 2.26172 79.9023 2.19727 80.6328 2.11133C80.3034 2.39779 80.0384 2.67708 79.8379 2.94922C79.6517 3.20703 79.5085 3.4362 79.4082 3.63672C79.2793 3.88021 79.2005 4.10938 79.1719 4.32422C79.1146 4.66797 79.0645 5.14062 79.0215 5.74219C78.9928 6.32943 78.9642 6.97396 78.9355 7.67578C78.9069 8.3776 78.8926 9.10091 78.8926 9.8457C78.8926 10.5905 78.8997 11.2995 78.9141 11.9727C78.9427 12.6315 78.9857 13.2188 79.043 13.7344C79.1146 14.25 79.2005 14.6224 79.3008 14.8516C79.444 15.1094 79.5944 15.3672 79.752 15.625C79.8952 15.8398 80.0671 16.0618 80.2676 16.291C80.4681 16.5202 80.6973 16.7064 80.9551 16.8496C80.11 16.8066 79.4368 16.7852 78.9355 16.7852H78.1621C77.9329 16.7852 77.6393 16.7995 77.2812 16.8281C76.9805 16.8568 76.6009 16.8854 76.1426 16.9141C75.6842 16.9427 75.1328 16.9857 74.4883 17.043C74.8177 16.6849 75.0755 16.3411 75.2617 16.0117C75.4479 15.6823 75.5983 15.3958 75.7129 15.1523C75.8418 14.8659 75.9277 14.5938 75.9707 14.3359C76.028 13.9635 76.071 13.5052 76.0996 12.9609C76.1426 12.4023 76.1712 11.8079 76.1855 11.1777C76.1999 10.5332 76.1999 9.88151 76.1855 9.22266C76.1855 8.54948 76.1712 7.90495 76.1426 7.28906C76.1139 6.67318 76.071 6.11458 76.0137 5.61328C75.9707 5.11198 75.9134 4.71094 75.8418 4.41016C75.7988 4.22396 75.7129 4.01628 75.584 3.78711C75.4694 3.58659 75.3118 3.35742 75.1113 3.09961C74.9251 2.82747 74.6745 2.52669 74.3594 2.19727ZM84.543 2.45508C85.2591 2.49805 85.8607 2.53385 86.3477 2.5625C86.849 2.57682 87.2643 2.59115 87.5938 2.60547C87.9661 2.61979 88.2812 2.61979 88.5391 2.60547C88.7969 2.59115 89.1478 2.55534 89.5918 2.49805C89.9642 2.45508 90.4583 2.39062 91.0742 2.30469C91.7044 2.20443 92.485 2.07552 93.416 1.91797C93.0866 2.2474 92.8288 2.54818 92.6426 2.82031C92.4707 3.07812 92.3346 3.30013 92.2344 3.48633C92.1198 3.71549 92.041 3.90885 91.998 4.06641C91.9694 4.20964 91.998 4.56771 92.084 5.14062C92.1699 5.71354 92.2917 6.39388 92.4492 7.18164C92.6068 7.95508 92.7786 8.78581 92.9648 9.67383C93.151 10.5475 93.3372 11.3711 93.5234 12.1445C93.7096 12.9036 93.8743 13.5553 94.0176 14.0996C94.1751 14.6296 94.2897 14.9447 94.3613 15.0449C94.5762 15.3457 94.7122 15.5462 94.7695 15.6465C94.8268 15.7324 94.9271 15.8112 95.0703 15.8828C95.1276 15.9115 95.2207 15.9544 95.3496 16.0117C95.4642 16.069 95.6146 16.1406 95.8008 16.2266C96.0013 16.3125 96.252 16.4128 96.5527 16.5273C95.9941 16.556 95.5143 16.5775 95.1133 16.5918C94.7122 16.5918 94.3828 16.599 94.125 16.6133C93.8242 16.6276 93.5664 16.6419 93.3516 16.6562C93.1367 16.6562 92.8789 16.6706 92.5781 16.6992C92.3203 16.7279 91.9837 16.7565 91.5684 16.7852C91.1673 16.8138 90.6947 16.8424 90.1504 16.8711C90.4368 16.6706 90.666 16.4915 90.8379 16.334C91.0241 16.1621 91.1673 16.0189 91.2676 15.9043C91.3822 15.7611 91.4609 15.6322 91.5039 15.5176C91.5326 15.3887 91.554 15.1953 91.5684 14.9375C91.5827 14.7083 91.5827 14.4076 91.5684 14.0352C91.554 13.6484 91.5182 13.1471 91.4609 12.5312L85.8105 13.1113C85.6673 13.3548 85.5599 13.5697 85.4883 13.7559C85.4167 13.9277 85.3665 14.0781 85.3379 14.207C85.2949 14.3646 85.2806 14.4935 85.2949 14.5938C85.3236 14.7083 85.3737 14.8444 85.4453 15.002C85.5169 15.1452 85.6172 15.3171 85.7461 15.5176C85.8893 15.7038 86.097 15.9258 86.3691 16.1836C86.0111 16.1693 85.6458 16.1621 85.2734 16.1621C84.901 16.1621 84.5573 16.1693 84.2422 16.1836C83.8698 16.1979 83.5046 16.2122 83.1465 16.2266C82.7884 16.2409 82.3802 16.2624 81.9219 16.291C81.5352 16.3197 81.084 16.3555 80.5684 16.3984C80.0384 16.4271 79.4727 16.4701 78.8711 16.5273C79.2435 16.3555 79.5586 16.1836 79.8164 16.0117C80.0742 15.8255 80.2891 15.6536 80.4609 15.4961C80.6615 15.3242 80.8333 15.1595 80.9766 15.002C81.0768 14.8587 81.2773 14.5293 81.5781 14.0137C81.8789 13.4837 82.2155 12.8607 82.5879 12.1445C82.9746 11.4284 83.3757 10.6621 83.791 9.8457C84.2207 9.0293 84.6074 8.26302 84.9512 7.54688C85.2949 6.81641 85.5742 6.1862 85.7891 5.65625C86.0039 5.1263 86.1113 4.78255 86.1113 4.625C86.0827 4.4388 86.0111 4.23112 85.8965 4.00195C85.7962 3.80143 85.6387 3.57227 85.4238 3.31445C85.2233 3.05664 84.9297 2.77018 84.543 2.45508ZM91.2031 10.9414C91.1172 10.4401 91.0384 10.0104 90.9668 9.65234C90.8952 9.27995 90.8379 8.97201 90.7949 8.72852C90.7376 8.44206 90.6947 8.19141 90.666 7.97656C90.623 7.77604 90.5729 7.51823 90.5156 7.20312C90.4583 6.93099 90.3867 6.5944 90.3008 6.19336C90.2292 5.77799 90.1361 5.28385 90.0215 4.71094C89.2051 6.34375 88.5677 7.61133 88.1094 8.51367C87.6654 9.40169 87.3431 10.0534 87.1426 10.4688C86.8991 10.9557 86.763 11.2422 86.7344 11.3281L91.2031 10.9414ZM95.8652 1.42383C96.2806 1.49544 96.6458 1.54557 96.9609 1.57422C97.2904 1.60286 97.5625 1.62435 97.7773 1.63867C98.0352 1.65299 98.2572 1.66016 98.4434 1.66016C98.6296 1.66016 98.8945 1.64583 99.2383 1.61719C99.5247 1.58854 99.8971 1.55273 100.355 1.50977C100.828 1.4668 101.408 1.39518 102.096 1.29492C101.895 1.35221 101.709 1.51693 101.537 1.78906C101.38 2.04688 101.236 2.32617 101.107 2.62695C100.95 2.98503 100.814 3.37891 100.699 3.80859C100.599 4.19531 100.47 4.72526 100.312 5.39844C100.169 6.07161 100.026 6.80208 99.8828 7.58984C99.7539 8.3776 99.6536 9.17969 99.582 9.99609C99.5104 10.7982 99.4961 11.5358 99.5391 12.209C99.5964 12.8822 99.7324 13.4408 99.9473 13.8848C100.162 14.3145 100.492 14.5436 100.936 14.5723C101.609 14.6296 102.167 14.6367 102.611 14.5938C103.07 14.5365 103.442 14.4577 103.729 14.3574C104.015 14.2572 104.237 14.1426 104.395 14.0137C104.552 13.8704 104.674 13.7344 104.76 13.6055C104.989 13.276 105.225 12.8535 105.469 12.3379C105.712 11.8223 105.927 11.3281 106.113 10.8555C106.314 10.3828 106.479 9.98177 106.607 9.65234C106.736 9.32292 106.801 9.16536 106.801 9.17969C106.801 9.20833 106.794 9.37305 106.779 9.67383C106.779 9.96029 106.772 10.3112 106.758 10.7266C106.758 11.1276 106.751 11.5501 106.736 11.9941C106.736 12.4382 106.729 12.8177 106.715 13.1328C106.701 13.3906 106.686 13.6771 106.672 13.9922C106.658 14.2643 106.643 14.5866 106.629 14.959C106.629 15.3314 106.615 15.7396 106.586 16.1836C105.984 16.1406 105.411 16.112 104.867 16.0977C104.323 16.0833 103.843 16.0762 103.428 16.0762C102.941 16.0762 102.49 16.0833 102.074 16.0977C101.63 16.112 101.115 16.1335 100.527 16.1621C100.026 16.1908 99.403 16.2266 98.6582 16.2695C97.9134 16.2982 97.054 16.3411 96.0801 16.3984C96.1947 16.1979 96.2878 16.0117 96.3594 15.8398C96.4453 15.668 96.5098 15.5247 96.5527 15.4102C96.61 15.2669 96.6458 15.1452 96.6602 15.0449C96.7461 14.5866 96.8177 14.0065 96.875 13.3047C96.9323 12.5885 96.9753 11.8294 97.0039 11.0273C97.0469 10.2253 97.0684 9.40885 97.0684 8.57812C97.0827 7.73307 97.0827 6.95247 97.0684 6.23633C97.054 5.52018 97.0254 4.89714 96.9824 4.36719C96.9538 3.83724 96.9108 3.47201 96.8535 3.27148C96.7819 3.04232 96.696 2.81315 96.5957 2.58398C96.5098 2.38346 96.4023 2.18294 96.2734 1.98242C96.1589 1.76758 96.0228 1.58138 95.8652 1.42383ZM7.19922 28.123C7.70052 28.123 8.15169 28.209 8.55273 28.3809C8.9681 28.5384 9.34766 28.7174 9.69141 28.918C10.0495 29.1185 10.3861 29.3047 10.7012 29.4766C11.0163 29.6341 11.3385 29.7129 11.668 29.7129C11.9258 29.6986 12.2194 29.6628 12.5488 29.6055C12.8353 29.5482 13.1647 29.4622 13.5371 29.3477C13.9238 29.2188 14.3535 29.0326 14.8262 28.7891C14.3535 29.2474 13.9668 29.6341 13.666 29.9492C13.3796 30.25 13.1576 30.5007 13 30.7012C12.8138 30.9303 12.6777 31.1094 12.5918 31.2383C12.5059 31.3958 12.377 31.6322 12.2051 31.9473C12.0475 32.2337 11.8327 32.6204 11.5605 33.1074C11.2884 33.5801 10.9447 34.2031 10.5293 34.9766C10.5293 33.9883 10.429 33.222 10.2285 32.6777C10.0423 32.1335 9.83464 31.7181 9.60547 31.4316C9.33333 31.1022 9.02539 30.8945 8.68164 30.8086C8.36654 30.7656 8.05143 30.8229 7.73633 30.9805C7.42122 31.1237 7.10612 31.3385 6.79102 31.625C6.49023 31.9115 6.19661 32.2552 5.91016 32.6562C5.63802 33.043 5.38737 33.4512 5.1582 33.8809C4.94336 34.3105 4.76432 34.7474 4.62109 35.1914C4.47786 35.6211 4.38477 36.0221 4.3418 36.3945C4.29883 36.724 4.29167 37.1107 4.32031 37.5547C4.34896 37.9844 4.41341 38.4284 4.51367 38.8867C4.61393 39.3307 4.74284 39.7676 4.90039 40.1973C5.05794 40.627 5.2513 41.0137 5.48047 41.3574C5.72396 41.6868 5.99609 41.959 6.29688 42.1738C6.59766 42.3743 6.94141 42.4674 7.32812 42.4531C7.75781 42.4245 8.18034 42.2956 8.5957 42.0664C8.95378 41.8802 9.31901 41.5938 9.69141 41.207C10.0638 40.806 10.3861 40.2402 10.6582 39.5098L13.8379 40.0898C12.9212 41.207 12.026 42.0449 11.1523 42.6035C10.293 43.1621 9.51953 43.556 8.83203 43.7852C8.02995 44.043 7.27083 44.1647 6.55469 44.1504C5.65234 44.0501 4.80729 43.778 4.01953 43.334C3.23177 42.89 2.55143 42.3529 1.97852 41.7227C1.41992 41.0781 0.983073 40.3763 0.667969 39.6172C0.352865 38.8581 0.216797 38.1133 0.259766 37.3828C0.288411 36.8958 0.388672 36.3301 0.560547 35.6855C0.732422 35.0267 0.961589 34.3535 1.24805 33.666C1.54883 32.9785 1.9069 32.3053 2.32227 31.6465C2.73763 30.9876 3.19596 30.4004 3.69727 29.8848C4.19857 29.3548 4.74284 28.9323 5.33008 28.6172C5.93164 28.2878 6.55469 28.123 7.19922 28.123ZM17.2109 29.4551C17.9271 29.498 18.5286 29.5339 19.0156 29.5625C19.5169 29.5768 19.9323 29.5911 20.2617 29.6055C20.6341 29.6198 20.9492 29.6198 21.207 29.6055C21.4648 29.5911 21.8158 29.5553 22.2598 29.498C22.6322 29.4551 23.1263 29.3906 23.7422 29.3047C24.3724 29.2044 25.153 29.0755 26.084 28.918C25.7546 29.2474 25.4967 29.5482 25.3105 29.8203C25.1387 30.0781 25.0026 30.3001 24.9023 30.4863C24.7878 30.7155 24.709 30.9089 24.666 31.0664C24.6374 31.2096 24.666 31.5677 24.752 32.1406C24.8379 32.7135 24.9596 33.3939 25.1172 34.1816C25.2747 34.9551 25.4466 35.7858 25.6328 36.6738C25.819 37.5475 26.0052 38.3711 26.1914 39.1445C26.3776 39.9036 26.5423 40.5553 26.6855 41.0996C26.8431 41.6296 26.9577 41.9447 27.0293 42.0449C27.2441 42.3457 27.3802 42.5462 27.4375 42.6465C27.4948 42.7324 27.5951 42.8112 27.7383 42.8828C27.7956 42.9115 27.8887 42.9544 28.0176 43.0117C28.1322 43.069 28.2826 43.1406 28.4688 43.2266C28.6693 43.3125 28.9199 43.4128 29.2207 43.5273C28.6621 43.556 28.1823 43.5775 27.7812 43.5918C27.3802 43.5918 27.0508 43.599 26.793 43.6133C26.4922 43.6276 26.2344 43.6419 26.0195 43.6562C25.8047 43.6562 25.5469 43.6706 25.2461 43.6992C24.9883 43.7279 24.6517 43.7565 24.2363 43.7852C23.8353 43.8138 23.3626 43.8424 22.8184 43.8711C23.1048 43.6706 23.334 43.4915 23.5059 43.334C23.6921 43.1621 23.8353 43.0189 23.9355 42.9043C24.0501 42.7611 24.1289 42.6322 24.1719 42.5176C24.2005 42.3887 24.222 42.1953 24.2363 41.9375C24.2507 41.7083 24.2507 41.4076 24.2363 41.0352C24.222 40.6484 24.1862 40.1471 24.1289 39.5312L18.4785 40.1113C18.3353 40.3548 18.2279 40.5697 18.1562 40.7559C18.0846 40.9277 18.0345 41.0781 18.0059 41.207C17.9629 41.3646 17.9486 41.4935 17.9629 41.5938C17.9915 41.7083 18.0417 41.8444 18.1133 42.002C18.1849 42.1452 18.2852 42.3171 18.4141 42.5176C18.5573 42.7038 18.765 42.9258 19.0371 43.1836C18.679 43.1693 18.3138 43.1621 17.9414 43.1621C17.569 43.1621 17.2253 43.1693 16.9102 43.1836C16.5378 43.1979 16.1725 43.2122 15.8145 43.2266C15.4564 43.2409 15.0482 43.2624 14.5898 43.291C14.2031 43.3197 13.752 43.3555 13.2363 43.3984C12.7064 43.4271 12.1406 43.4701 11.5391 43.5273C11.9115 43.3555 12.2266 43.1836 12.4844 43.0117C12.7422 42.8255 12.957 42.6536 13.1289 42.4961C13.3294 42.3242 13.5013 42.1595 13.6445 42.002C13.7448 41.8587 13.9453 41.5293 14.2461 41.0137C14.5469 40.4837 14.8835 39.8607 15.2559 39.1445C15.6426 38.4284 16.0436 37.6621 16.459 36.8457C16.8887 36.0293 17.2754 35.263 17.6191 34.5469C17.9629 33.8164 18.2422 33.1862 18.457 32.6562C18.6719 32.1263 18.7793 31.7826 18.7793 31.625C18.7507 31.4388 18.679 31.2311 18.5645 31.002C18.4642 30.8014 18.3066 30.5723 18.0918 30.3145C17.8913 30.0566 17.5977 29.7702 17.2109 29.4551ZM23.8711 37.9414C23.7852 37.4401 23.7064 37.0104 23.6348 36.6523C23.5632 36.2799 23.5059 35.972 23.4629 35.7285C23.4056 35.4421 23.3626 35.1914 23.334 34.9766C23.291 34.776 23.2409 34.5182 23.1836 34.2031C23.1263 33.931 23.0547 33.5944 22.9688 33.1934C22.8971 32.778 22.804 32.2839 22.6895 31.7109C21.873 33.3438 21.2357 34.6113 20.7773 35.5137C20.3333 36.4017 20.0111 37.0534 19.8105 37.4688C19.5671 37.9557 19.431 38.2422 19.4023 38.3281L23.8711 37.9414ZM27.3301 28.3164C27.7884 28.388 28.2038 28.4525 28.5762 28.5098C28.9486 28.5527 29.2708 28.5885 29.543 28.6172C29.8581 28.6602 30.1374 28.696 30.3809 28.7246C30.6816 28.7676 31.1328 28.7174 31.7344 28.5742C32.3359 28.4167 32.9948 28.2734 33.7109 28.1445C34.4414 28.0013 35.1862 27.9225 35.9453 27.9082C36.7044 27.8796 37.3991 28.0156 38.0293 28.3164C38.6595 28.6172 39.1751 28.918 39.5762 29.2188C39.9772 29.5195 40.2923 29.8418 40.5215 30.1855C40.765 30.515 40.9368 30.8659 41.0371 31.2383C41.1374 31.6107 41.1947 32.0189 41.209 32.4629C41.1947 33.1217 41.0371 33.7591 40.7363 34.375C40.6074 34.6328 40.4355 34.9049 40.2207 35.1914C40.0202 35.4635 39.7695 35.7285 39.4688 35.9863C39.168 36.2441 38.8099 36.4876 38.3945 36.7168C37.9935 36.946 37.5208 37.1465 36.9766 37.3184C37.5065 37.4759 37.9434 37.6621 38.2871 37.877C38.6452 38.0918 38.9316 38.2923 39.1465 38.4785C39.4043 38.7077 39.5977 38.9297 39.7266 39.1445C39.8841 39.4453 39.9915 39.7031 40.0488 39.918C40.1061 40.1328 40.1419 40.3405 40.1562 40.541C40.1849 40.7272 40.2207 40.9206 40.2637 41.1211C40.3066 41.3216 40.3997 41.5508 40.543 41.8086C40.6576 42.0091 40.7936 42.2168 40.9512 42.4316C41.0944 42.6178 41.2591 42.8184 41.4453 43.0332C41.6458 43.248 41.8893 43.4557 42.1758 43.6562C41.7747 43.6706 41.4023 43.6777 41.0586 43.6777C40.7292 43.6777 40.4427 43.6777 40.1992 43.6777C39.9128 43.6777 39.6406 43.6706 39.3828 43.6562C39.125 43.6419 38.8027 43.6348 38.416 43.6348C38.0866 43.6348 37.6641 43.6348 37.1484 43.6348C36.6471 43.6348 36.0384 43.6419 35.3223 43.6562C35.6374 43.4128 35.8952 43.1693 36.0957 42.9258C36.2962 42.6823 36.4538 42.4603 36.5684 42.2598C36.6973 42.0306 36.7904 41.8086 36.8477 41.5938C36.9193 41.207 36.9264 40.806 36.8691 40.3906C36.8262 40.0326 36.7116 39.6387 36.5254 39.209C36.3392 38.765 36.0384 38.321 35.623 37.877C35.2077 37.9486 34.8568 38.0059 34.5703 38.0488C34.2982 38.0775 34.0618 38.1061 33.8613 38.1348C33.6322 38.1634 33.446 38.1849 33.3027 38.1992C33.1738 38.2135 33.0306 38.2279 32.873 38.2422C32.7441 38.2565 32.6009 38.278 32.4434 38.3066C32.3001 38.321 32.1641 38.3424 32.0352 38.3711C32.0065 38.987 32.0065 39.5241 32.0352 39.9824C32.0638 40.4264 32.0996 40.7988 32.1426 41.0996C32.1999 41.4577 32.2643 41.7656 32.3359 42.0234C32.4076 42.2812 32.5078 42.5319 32.6367 42.7754C32.737 42.9759 32.8659 43.1908 33.0234 43.4199C33.181 43.6348 33.36 43.8138 33.5605 43.957C33.1882 43.957 32.8301 43.957 32.4863 43.957C32.1569 43.957 31.8561 43.9499 31.584 43.9355C31.2689 43.9355 30.9681 43.9284 30.6816 43.9141C30.3952 43.8997 30.0729 43.8926 29.7148 43.8926C29.4141 43.8926 29.056 43.8926 28.6406 43.8926C28.2396 43.8926 27.8027 43.8997 27.3301 43.9141C27.7025 43.5273 27.9961 43.1979 28.2109 42.9258C28.4258 42.6536 28.5905 42.4245 28.7051 42.2383C28.834 42.0378 28.9128 41.8659 28.9414 41.7227C28.9701 41.4935 28.9915 41.0853 29.0059 40.498C29.0345 39.8965 29.056 39.209 29.0703 38.4355C29.0846 37.6621 29.0918 36.8529 29.0918 36.0078C29.0918 35.1628 29.0846 34.375 29.0703 33.6445C29.056 32.8997 29.0417 32.2624 29.0273 31.7324C29.013 31.2025 28.9987 30.8659 28.9844 30.7227C28.9414 30.4648 28.8483 30.207 28.7051 29.9492C28.5905 29.7201 28.4258 29.4622 28.2109 29.1758C27.9961 28.8893 27.7025 28.6029 27.3301 28.3164ZM35.4512 35.8789C35.5944 35.793 35.7161 35.707 35.8164 35.6211C35.9167 35.5352 36.0026 35.3991 36.0742 35.2129C36.1458 35.0124 36.2031 34.7331 36.2461 34.375C36.3034 34.0169 36.3678 33.5299 36.4395 32.9141C36.4967 32.2982 36.4538 31.7897 36.3105 31.3887C36.1816 30.9876 36.0026 30.6725 35.7734 30.4434C35.5586 30.1999 35.3151 30.0352 35.043 29.9492C34.7852 29.849 34.556 29.7988 34.3555 29.7988C33.9544 29.7988 33.5605 29.9206 33.1738 30.1641C32.7871 30.4076 32.4935 30.737 32.293 31.1523C32.2214 31.3385 32.1569 31.6465 32.0996 32.0762C32.0566 32.4486 32.028 32.9642 32.0137 33.623C31.9993 34.2819 32.0208 35.1484 32.0781 36.2227C32.6224 36.3086 33.1022 36.3444 33.5176 36.3301C33.9329 36.3014 34.2839 36.2513 34.5703 36.1797C34.9141 36.1081 35.2077 36.0078 35.4512 35.8789ZM41.9609 29.1973C42.4479 29.2546 42.8561 29.2975 43.1855 29.3262C43.5293 29.3405 43.8086 29.362 44.0234 29.3906C44.2812 29.4193 44.4818 29.4336 44.625 29.4336C44.7826 29.4479 45.0189 29.4408 45.334 29.4121C45.6061 29.3835 45.9714 29.3477 46.4297 29.3047C46.9023 29.2617 47.5039 29.1973 48.2344 29.1113C47.9049 29.3978 47.64 29.6771 47.4395 29.9492C47.2533 30.207 47.11 30.4362 47.0098 30.6367C46.8809 30.8802 46.8021 31.1094 46.7734 31.3242C46.7161 31.668 46.666 32.1406 46.623 32.7422C46.5944 33.3294 46.5658 33.974 46.5371 34.6758C46.5085 35.3776 46.4941 36.1009 46.4941 36.8457C46.4941 37.5905 46.5013 38.2995 46.5156 38.9727C46.5443 39.6315 46.5872 40.2188 46.6445 40.7344C46.7161 41.25 46.8021 41.6224 46.9023 41.8516C47.0456 42.1094 47.196 42.3672 47.3535 42.625C47.4967 42.8398 47.6686 43.0618 47.8691 43.291C48.0697 43.5202 48.2988 43.7064 48.5566 43.8496C47.7116 43.8066 47.0384 43.7852 46.5371 43.7852H45.7637C45.5345 43.7852 45.2409 43.7995 44.8828 43.8281C44.582 43.8568 44.2025 43.8854 43.7441 43.9141C43.2858 43.9427 42.7344 43.9857 42.0898 44.043C42.4193 43.6849 42.6771 43.3411 42.8633 43.0117C43.0495 42.6823 43.1999 42.3958 43.3145 42.1523C43.4434 41.8659 43.5293 41.5938 43.5723 41.3359C43.6296 40.9635 43.6725 40.5052 43.7012 39.9609C43.7441 39.4023 43.7728 38.8079 43.7871 38.1777C43.8014 37.5332 43.8014 36.8815 43.7871 36.2227C43.7871 35.5495 43.7728 34.9049 43.7441 34.2891C43.7155 33.6732 43.6725 33.1146 43.6152 32.6133C43.5723 32.112 43.515 31.7109 43.4434 31.4102C43.4004 31.224 43.3145 31.0163 43.1855 30.7871C43.071 30.5866 42.9134 30.3574 42.7129 30.0996C42.5267 29.8275 42.276 29.5267 41.9609 29.1973ZM48.3418 28.6387C48.8001 28.7533 49.237 28.8392 49.6523 28.8965C50.0677 28.9538 50.4329 28.9967 50.748 29.0254C51.1204 29.0684 51.4642 29.0827 51.7793 29.0684C52.1803 29.0684 52.6816 29.0326 53.2832 28.9609C53.8991 28.8893 54.5293 28.8249 55.1738 28.7676C55.8184 28.696 56.4342 28.653 57.0215 28.6387C57.623 28.61 58.11 28.6458 58.4824 28.7461C58.8548 28.832 59.2344 28.9681 59.6211 29.1543C60.0221 29.3262 60.3874 29.5482 60.7168 29.8203C61.0462 30.0781 61.3184 30.3861 61.5332 30.7441C61.748 31.0879 61.8698 31.4818 61.8984 31.9258C61.8841 32.4844 61.7552 33.0072 61.5117 33.4941C61.3112 33.9095 60.9746 34.3392 60.502 34.7832C60.0293 35.2129 59.349 35.5423 58.4609 35.7715C58.9049 35.8288 59.2845 35.929 59.5996 36.0723C59.929 36.2012 60.2083 36.3587 60.4375 36.5449C60.681 36.7168 60.8743 36.9102 61.0176 37.125C61.1751 37.3398 61.2969 37.5547 61.3828 37.7695C61.5977 38.2708 61.6979 38.8294 61.6836 39.4453C61.5977 40.2474 61.4329 40.8848 61.1895 41.3574C60.9603 41.8301 60.6953 42.1953 60.3945 42.4531C60.0938 42.7109 59.7858 42.89 59.4707 42.9902C59.1556 43.0905 58.8691 43.1693 58.6113 43.2266C58.3535 43.2839 58.0384 43.3125 57.666 43.3125C57.2936 43.3125 56.8926 43.3053 56.4629 43.291C56.0475 43.2624 55.6178 43.2409 55.1738 43.2266C54.7298 43.1979 54.3073 43.1979 53.9062 43.2266C53.5768 43.2552 53.1758 43.2839 52.7031 43.3125C52.3021 43.3411 51.8008 43.377 51.1992 43.4199C50.5977 43.4486 49.8958 43.4844 49.0938 43.5273C49.2513 43.4128 49.3802 43.2839 49.4805 43.1406C49.5951 42.9831 49.6882 42.847 49.7598 42.7324C49.8314 42.5892 49.8958 42.4531 49.9531 42.3242C49.9961 42.2096 50.0319 41.8945 50.0605 41.3789C50.0892 40.8633 50.1107 40.2474 50.125 39.5312C50.1393 38.8008 50.1465 38.0202 50.1465 37.1895C50.1608 36.3444 50.1536 35.5352 50.125 34.7617C50.1107 33.974 50.082 33.2793 50.0391 32.6777C50.0104 32.0618 49.9674 31.6178 49.9102 31.3457C49.8242 31.0449 49.7096 30.737 49.5664 30.4219C49.4518 30.1497 49.2871 29.8561 49.0723 29.541C48.8717 29.2259 48.6283 28.9251 48.3418 28.6387ZM52.875 30.8301C52.875 30.8874 52.8822 31.0807 52.8965 31.4102C52.9108 31.6966 52.9251 32.1406 52.9395 32.7422C52.9681 33.3294 53.0039 34.1673 53.0469 35.2559C53.4049 35.4134 53.7559 35.4993 54.0996 35.5137C54.4434 35.5137 54.7513 35.4993 55.0234 35.4707C55.3385 35.4277 55.6393 35.3561 55.9258 35.2559C56.3125 35.0983 56.6133 34.8405 56.8281 34.4824C57.0573 34.1243 57.2077 33.752 57.2793 33.3652C57.3652 32.9642 57.3867 32.5918 57.3438 32.248C57.3008 31.89 57.2077 31.6322 57.0645 31.4746C56.7923 31.2311 56.4557 31.0306 56.0547 30.873C55.7109 30.7441 55.2741 30.6582 54.7441 30.6152C54.2285 30.5579 53.6055 30.6296 52.875 30.8301ZM52.7676 41.0137C53.2975 41.2858 53.763 41.4648 54.1641 41.5508C54.5651 41.6367 54.9017 41.6797 55.1738 41.6797C55.4889 41.6797 55.7611 41.6367 55.9902 41.5508C56.2624 41.4219 56.5273 41.25 56.7852 41.0352C57.0573 40.806 57.2578 40.541 57.3867 40.2402C57.5299 39.9251 57.5872 39.5814 57.5586 39.209C57.5299 38.8223 57.3652 38.3997 57.0645 37.9414C56.7923 37.612 56.4629 37.3542 56.0762 37.168C55.7324 37.0104 55.2956 36.9102 54.7656 36.8672C54.25 36.8242 53.6126 36.946 52.8535 37.2324L52.7676 41.0137ZM62.2422 28.6387C62.7005 28.7533 63.1374 28.8392 63.5527 28.8965C63.9681 28.9538 64.3333 28.9967 64.6484 29.0254C65.0208 29.0684 65.3646 29.0827 65.6797 29.0684C66.0807 29.0684 66.582 29.0326 67.1836 28.9609C67.7995 28.8893 68.4297 28.8249 69.0742 28.7676C69.7188 28.696 70.3346 28.653 70.9219 28.6387C71.5234 28.61 72.0104 28.6458 72.3828 28.7461C72.7552 28.832 73.1348 28.9681 73.5215 29.1543C73.9225 29.3262 74.2878 29.5482 74.6172 29.8203C74.9466 30.0781 75.2188 30.3861 75.4336 30.7441C75.6484 31.0879 75.7702 31.4818 75.7988 31.9258C75.7845 32.4844 75.6556 33.0072 75.4121 33.4941C75.2116 33.9095 74.875 34.3392 74.4023 34.7832C73.9297 35.2129 73.2493 35.5423 72.3613 35.7715C72.8053 35.8288 73.1849 35.929 73.5 36.0723C73.8294 36.2012 74.1087 36.3587 74.3379 36.5449C74.5814 36.7168 74.7747 36.9102 74.918 37.125C75.0755 37.3398 75.1973 37.5547 75.2832 37.7695C75.498 38.2708 75.5983 38.8294 75.584 39.4453C75.498 40.2474 75.3333 40.8848 75.0898 41.3574C74.8607 41.8301 74.5957 42.1953 74.2949 42.4531C73.9941 42.7109 73.6862 42.89 73.3711 42.9902C73.056 43.0905 72.7695 43.1693 72.5117 43.2266C72.2539 43.2839 71.9388 43.3125 71.5664 43.3125C71.194 43.3125 70.793 43.3053 70.3633 43.291C69.9479 43.2624 69.5182 43.2409 69.0742 43.2266C68.6302 43.1979 68.2077 43.1979 67.8066 43.2266C67.4772 43.2552 67.0762 43.2839 66.6035 43.3125C66.2025 43.3411 65.7012 43.377 65.0996 43.4199C64.498 43.4486 63.7962 43.4844 62.9941 43.5273C63.1517 43.4128 63.2806 43.2839 63.3809 43.1406C63.4954 42.9831 63.5885 42.847 63.6602 42.7324C63.7318 42.5892 63.7962 42.4531 63.8535 42.3242C63.8965 42.2096 63.9323 41.8945 63.9609 41.3789C63.9896 40.8633 64.0111 40.2474 64.0254 39.5312C64.0397 38.8008 64.0469 38.0202 64.0469 37.1895C64.0612 36.3444 64.054 35.5352 64.0254 34.7617C64.0111 33.974 63.9824 33.2793 63.9395 32.6777C63.9108 32.0618 63.8678 31.6178 63.8105 31.3457C63.7246 31.0449 63.61 30.737 63.4668 30.4219C63.3522 30.1497 63.1875 29.8561 62.9727 29.541C62.7721 29.2259 62.5286 28.9251 62.2422 28.6387ZM66.7754 30.8301C66.7754 30.8874 66.7826 31.0807 66.7969 31.4102C66.8112 31.6966 66.8255 32.1406 66.8398 32.7422C66.8685 33.3294 66.9043 34.1673 66.9473 35.2559C67.3053 35.4134 67.6562 35.4993 68 35.5137C68.3438 35.5137 68.6517 35.4993 68.9238 35.4707C69.2389 35.4277 69.5397 35.3561 69.8262 35.2559C70.2129 35.0983 70.5137 34.8405 70.7285 34.4824C70.9577 34.1243 71.1081 33.752 71.1797 33.3652C71.2656 32.9642 71.2871 32.5918 71.2441 32.248C71.2012 31.89 71.1081 31.6322 70.9648 31.4746C70.6927 31.2311 70.3561 31.0306 69.9551 30.873C69.6113 30.7441 69.1745 30.6582 68.6445 30.6152C68.1289 30.5579 67.5059 30.6296 66.7754 30.8301ZM66.668 41.0137C67.1979 41.2858 67.6634 41.4648 68.0645 41.5508C68.4655 41.6367 68.8021 41.6797 69.0742 41.6797C69.3893 41.6797 69.6615 41.6367 69.8906 41.5508C70.1628 41.4219 70.4277 41.25 70.6855 41.0352C70.9577 40.806 71.1582 40.541 71.2871 40.2402C71.4303 39.9251 71.4876 39.5814 71.459 39.209C71.4303 38.8223 71.2656 38.3997 70.9648 37.9414C70.6927 37.612 70.3633 37.3542 69.9766 37.168C69.6328 37.0104 69.196 36.9102 68.666 36.8672C68.1504 36.8242 67.513 36.946 66.7539 37.2324L66.668 41.0137ZM75.584 29.3262C76.5866 29.3548 77.4173 29.3763 78.0762 29.3906C78.7493 29.3906 79.2936 29.3906 79.709 29.3906H80.8477H87.25C87.2786 29.6771 87.3001 29.9564 87.3145 30.2285C87.3431 30.4863 87.3574 30.7155 87.3574 30.916C87.3574 31.1595 87.3503 31.3815 87.3359 31.582C87.3216 31.7826 87.3001 31.9974 87.2715 32.2266C87.2428 32.4271 87.2142 32.6419 87.1855 32.8711C87.1569 33.1003 87.1068 33.3366 87.0352 33.5801C86.8346 32.8066 86.5625 32.2194 86.2188 31.8184C85.8893 31.4173 85.5527 31.1237 85.209 30.9375C84.8079 30.7227 84.3854 30.6081 83.9414 30.5938C83.3542 30.6224 82.8958 30.6725 82.5664 30.7441C82.237 30.8158 81.9792 30.916 81.793 31.0449C81.6068 31.1738 81.4635 31.3242 81.3633 31.4961C81.2773 31.6536 81.1842 31.8327 81.084 32.0332C80.998 32.2051 80.9193 32.4701 80.8477 32.8281C80.776 33.1289 80.7044 33.5371 80.6328 34.0527C80.5755 34.5684 80.5111 35.2344 80.4395 36.0508C80.8262 35.9362 81.1341 35.8288 81.3633 35.7285C81.6068 35.6283 81.8001 35.5423 81.9434 35.4707C82.1009 35.3848 82.2155 35.306 82.2871 35.2344C82.3444 35.1484 82.4303 34.9909 82.5449 34.7617C82.6309 34.5612 82.7454 34.2891 82.8887 33.9453C83.0462 33.6016 83.2324 33.1289 83.4473 32.5273C83.4759 33.1862 83.4902 33.7376 83.4902 34.1816C83.4902 34.6113 83.4974 34.9622 83.5117 35.2344C83.5117 35.5495 83.5189 35.8001 83.5332 35.9863V36.8027C83.5332 37.1035 83.5332 37.5117 83.5332 38.0273C83.5475 38.5286 83.569 39.166 83.5977 39.9395C83.4258 39.4095 83.2682 38.9941 83.125 38.6934C82.9961 38.3783 82.8815 38.1419 82.7812 37.9844C82.6667 37.7982 82.5664 37.6693 82.4805 37.5977C82.3802 37.569 82.2441 37.5404 82.0723 37.5117C81.9147 37.4974 81.7142 37.4902 81.4707 37.4902C81.2415 37.4902 80.9479 37.526 80.5898 37.5977C80.5469 38.3854 80.5397 39.0228 80.5684 39.5098C80.6113 39.9824 80.6686 40.3477 80.7402 40.6055C80.8118 40.9062 80.8978 41.1211 80.998 41.25C81.127 41.3789 81.3848 41.4863 81.7715 41.5723C82.1582 41.6439 82.5951 41.6725 83.082 41.6582C83.5833 41.6296 84.0918 41.5436 84.6074 41.4004C85.123 41.2572 85.5814 41.0208 85.9824 40.6914C86.2832 40.4193 86.6055 40.0755 86.9492 39.6602C87.2357 39.3021 87.5508 38.8509 87.8945 38.3066C88.2526 37.7624 88.6035 37.1035 88.9473 36.3301C88.89 36.9746 88.847 37.5117 88.8184 37.9414C88.804 38.3568 88.7826 38.6934 88.7539 38.9512C88.7253 39.252 88.7038 39.4811 88.6895 39.6387C88.6895 39.8105 88.668 40.054 88.625 40.3691C88.5964 40.6413 88.5462 41.0137 88.4746 41.4863C88.4173 41.9447 88.3385 42.5319 88.2383 43.248C87.5651 43.2624 86.9277 43.2767 86.3262 43.291C85.7246 43.291 85.1947 43.2982 84.7363 43.3125C84.1921 43.3268 83.6908 43.3411 83.2324 43.3555C82.7598 43.3555 82.237 43.377 81.6641 43.4199C81.1628 43.4486 80.5684 43.4915 79.8809 43.5488C79.2077 43.6061 78.4629 43.6849 77.6465 43.7852C77.7181 42.8112 77.7682 41.8945 77.7969 41.0352C77.8398 40.1615 77.8685 39.3952 77.8828 38.7363C77.8971 37.9629 77.8971 37.2467 77.8828 36.5879C77.9544 34.9408 77.9258 33.6087 77.7969 32.5918C77.668 31.5749 77.5176 30.9232 77.3457 30.6367C77.2598 30.5365 77.138 30.4147 76.9805 30.2715C76.8516 30.1569 76.6725 30.0208 76.4434 29.8633C76.2142 29.7057 75.9277 29.5267 75.584 29.3262ZM92.2129 29.4551C92.929 29.498 93.5306 29.5339 94.0176 29.5625C94.5189 29.5768 94.9342 29.5911 95.2637 29.6055C95.6361 29.6198 95.9512 29.6198 96.209 29.6055C96.4668 29.5911 96.8177 29.5553 97.2617 29.498C97.6341 29.4551 98.1283 29.3906 98.7441 29.3047C99.3743 29.2044 100.155 29.0755 101.086 28.918C100.757 29.2474 100.499 29.5482 100.312 29.8203C100.141 30.0781 100.005 30.3001 99.9043 30.4863C99.7897 30.7155 99.7109 30.9089 99.668 31.0664C99.6393 31.2096 99.668 31.5677 99.7539 32.1406C99.8398 32.7135 99.9616 33.3939 100.119 34.1816C100.277 34.9551 100.449 35.7858 100.635 36.6738C100.821 37.5475 101.007 38.3711 101.193 39.1445C101.38 39.9036 101.544 40.5553 101.688 41.0996C101.845 41.6296 101.96 41.9447 102.031 42.0449C102.246 42.3457 102.382 42.5462 102.439 42.6465C102.497 42.7324 102.597 42.8112 102.74 42.8828C102.798 42.9115 102.891 42.9544 103.02 43.0117C103.134 43.069 103.285 43.1406 103.471 43.2266C103.671 43.3125 103.922 43.4128 104.223 43.5273C103.664 43.556 103.184 43.5775 102.783 43.5918C102.382 43.5918 102.053 43.599 101.795 43.6133C101.494 43.6276 101.236 43.6419 101.021 43.6562C100.807 43.6562 100.549 43.6706 100.248 43.6992C99.9902 43.7279 99.6536 43.7565 99.2383 43.7852C98.8372 43.8138 98.3646 43.8424 97.8203 43.8711C98.1068 43.6706 98.3359 43.4915 98.5078 43.334C98.694 43.1621 98.8372 43.0189 98.9375 42.9043C99.0521 42.7611 99.1309 42.6322 99.1738 42.5176C99.2025 42.3887 99.224 42.1953 99.2383 41.9375C99.2526 41.7083 99.2526 41.4076 99.2383 41.0352C99.224 40.6484 99.1882 40.1471 99.1309 39.5312L93.4805 40.1113C93.3372 40.3548 93.2298 40.5697 93.1582 40.7559C93.0866 40.9277 93.0365 41.0781 93.0078 41.207C92.9648 41.3646 92.9505 41.4935 92.9648 41.5938C92.9935 41.7083 93.0436 41.8444 93.1152 42.002C93.1868 42.1452 93.2871 42.3171 93.416 42.5176C93.5592 42.7038 93.7669 42.9258 94.0391 43.1836C93.681 43.1693 93.3158 43.1621 92.9434 43.1621C92.571 43.1621 92.2272 43.1693 91.9121 43.1836C91.5397 43.1979 91.1745 43.2122 90.8164 43.2266C90.4583 43.2409 90.0501 43.2624 89.5918 43.291C89.2051 43.3197 88.7539 43.3555 88.2383 43.3984C87.7083 43.4271 87.1426 43.4701 86.541 43.5273C86.9134 43.3555 87.2285 43.1836 87.4863 43.0117C87.7441 42.8255 87.959 42.6536 88.1309 42.4961C88.3314 42.3242 88.5033 42.1595 88.6465 42.002C88.7467 41.8587 88.9473 41.5293 89.248 41.0137C89.5488 40.4837 89.8854 39.8607 90.2578 39.1445C90.6445 38.4284 91.0456 37.6621 91.4609 36.8457C91.8906 36.0293 92.2773 35.263 92.6211 34.5469C92.9648 33.8164 93.2441 33.1862 93.459 32.6562C93.6738 32.1263 93.7812 31.7826 93.7812 31.625C93.7526 31.4388 93.681 31.2311 93.5664 31.002C93.4661 30.8014 93.3086 30.5723 93.0938 30.3145C92.8932 30.0566 92.5996 29.7702 92.2129 29.4551ZM98.873 37.9414C98.7871 37.4401 98.7083 37.0104 98.6367 36.6523C98.5651 36.2799 98.5078 35.972 98.4648 35.7285C98.4076 35.4421 98.3646 35.1914 98.3359 34.9766C98.293 34.776 98.2428 34.5182 98.1855 34.2031C98.1283 33.931 98.0566 33.5944 97.9707 33.1934C97.8991 32.778 97.806 32.2839 97.6914 31.7109C96.875 33.3438 96.2376 34.6113 95.7793 35.5137C95.3353 36.4017 95.013 37.0534 94.8125 37.4688C94.569 37.9557 94.4329 38.2422 94.4043 38.3281L98.873 37.9414ZM102.998 28.7676C103.643 28.8822 104.173 28.9609 104.588 29.0039C105.003 29.0469 105.34 29.0827 105.598 29.1113C105.898 29.14 106.135 29.1471 106.307 29.1328H106.951C107.18 29.1328 107.467 29.1328 107.811 29.1328C108.169 29.1185 108.613 29.1113 109.143 29.1113C109.443 29.8132 109.715 30.4577 109.959 31.0449C110.217 31.6322 110.432 32.1335 110.604 32.5488C110.804 33.0501 110.99 33.5013 111.162 33.9023C111.363 34.4036 111.577 34.9551 111.807 35.5566C112.036 36.1582 112.243 36.724 112.43 37.2539C112.63 37.7839 112.795 38.2207 112.924 38.5645C113.053 38.9082 113.117 39.0658 113.117 39.0371C113.117 39.0228 113.124 38.8796 113.139 38.6074C113.153 38.321 113.167 37.9701 113.182 37.5547C113.196 37.125 113.21 36.6595 113.225 36.1582C113.253 35.6426 113.268 35.1484 113.268 34.6758C113.282 34.1888 113.289 33.7448 113.289 33.3438C113.289 32.9427 113.275 32.6419 113.246 32.4414C113.203 32.1979 113.117 31.9186 112.988 31.6035C112.874 31.3314 112.716 31.0091 112.516 30.6367C112.315 30.25 112.036 29.8132 111.678 29.3262C112.265 29.3405 112.745 29.3477 113.117 29.3477C113.49 29.3477 113.79 29.3477 114.02 29.3477C114.277 29.3477 114.478 29.3405 114.621 29.3262C114.807 29.3262 115.036 29.3118 115.309 29.2832C115.552 29.2546 115.853 29.2331 116.211 29.2188C116.583 29.1901 117.042 29.1543 117.586 29.1113C117.271 29.3978 117.02 29.6699 116.834 29.9277C116.648 30.1855 116.497 30.4147 116.383 30.6152C116.254 30.8444 116.168 31.0592 116.125 31.2598C116.068 31.5176 116.018 31.9401 115.975 32.5273C115.946 33.1003 115.91 33.7448 115.867 34.4609C115.839 35.1771 115.81 35.9219 115.781 36.6953C115.753 37.4688 115.724 38.1777 115.695 38.8223C115.695 39.3092 115.681 39.832 115.652 40.3906C115.624 40.8633 115.595 41.4004 115.566 42.002C115.538 42.5892 115.502 43.1836 115.459 43.7852L113.547 43.8281C112.988 42.8398 112.516 41.9948 112.129 41.293C111.757 40.5768 111.449 39.9896 111.205 39.5312C110.933 39.0013 110.704 38.5573 110.518 38.1992C110.36 37.8555 110.152 37.4616 109.895 37.0176C109.68 36.6452 109.408 36.1868 109.078 35.6426C108.763 35.0983 108.383 34.4753 107.939 33.7734C107.896 34.7617 107.875 35.6068 107.875 36.3086C107.889 36.9961 107.911 37.569 107.939 38.0273C107.982 38.5573 108.033 39.0013 108.09 39.3594C108.161 39.7031 108.262 40.0898 108.391 40.5195C108.505 40.8919 108.641 41.3288 108.799 41.8301C108.971 42.3314 109.178 42.8971 109.422 43.5273C108.577 43.4844 107.947 43.4629 107.531 43.4629H106.887C106.686 43.4629 106.414 43.4844 106.07 43.5273C105.784 43.556 105.39 43.599 104.889 43.6562C104.402 43.7135 103.793 43.7923 103.062 43.8926C103.406 43.4772 103.678 43.0977 103.879 42.7539C104.094 42.3958 104.258 42.0951 104.373 41.8516C104.516 41.5651 104.617 41.3145 104.674 41.0996C104.717 40.8704 104.745 40.4766 104.76 39.918C104.774 39.3451 104.774 38.7005 104.76 37.9844C104.76 37.2539 104.745 36.4876 104.717 35.6855C104.702 34.8835 104.681 34.1387 104.652 33.4512C104.624 32.7637 104.588 32.1764 104.545 31.6895C104.516 31.2025 104.495 30.9017 104.48 30.7871C104.438 30.6009 104.352 30.4004 104.223 30.1855C104.108 29.9993 103.958 29.7917 103.771 29.5625C103.585 29.319 103.327 29.054 102.998 28.7676ZM24.7412 55.3164C25.7008 55.431 26.5316 55.5169 27.2334 55.5742C27.9352 55.6172 28.5153 55.653 28.9736 55.6816C29.5036 55.7103 29.9476 55.7174 30.3057 55.7031C30.6781 55.6888 31.1865 55.653 31.8311 55.5957C32.3753 55.5527 33.0915 55.4954 33.9795 55.4238C34.8675 55.3379 35.9775 55.2233 37.3096 55.0801C37.3239 55.4095 37.3311 55.7318 37.3311 56.0469C37.3454 56.3477 37.3597 56.6126 37.374 56.8418C37.3883 57.1139 37.3955 57.3646 37.3955 57.5938C37.3955 57.8372 37.3812 58.1452 37.3525 58.5176C37.3239 58.8327 37.2738 59.2337 37.2021 59.7207C37.1449 60.1934 37.0518 60.7591 36.9229 61.418C36.7223 60.6445 36.529 60.0215 36.3428 59.5488C36.1566 59.0618 35.9847 58.6751 35.8271 58.3887C35.6553 58.0592 35.4834 57.8086 35.3115 57.6367C35.1253 57.5078 34.9033 57.4004 34.6455 57.3145C34.4163 57.2428 34.1227 57.1855 33.7646 57.1426C33.4209 57.0996 33.0127 57.1068 32.54 57.1641C32.4684 59.0547 32.4183 60.5872 32.3896 61.7617C32.361 62.9362 32.3395 63.8529 32.3252 64.5117C32.3109 65.2995 32.3037 65.8652 32.3037 66.209C32.318 66.696 32.3968 67.1758 32.54 67.6484C32.6546 68.0495 32.8408 68.4648 33.0986 68.8945C33.3564 69.3242 33.7288 69.7038 34.2158 70.0332H31.5947C31.3512 70.0332 31.0505 70.0475 30.6924 70.0762C30.3916 70.1048 30.0049 70.1335 29.5322 70.1621C29.0739 70.1908 28.5368 70.2409 27.9209 70.3125C28.1357 69.9401 28.3076 69.6035 28.4365 69.3027C28.5654 69.002 28.6657 68.7441 28.7373 68.5293C28.8232 68.2715 28.8877 68.0423 28.9307 67.8418C28.945 67.5553 28.9808 66.9753 29.0381 66.1016C29.0524 65.7435 29.0667 65.2995 29.0811 64.7695C29.1097 64.2396 29.1383 63.6094 29.167 62.8789C29.21 62.1484 29.2458 61.3105 29.2744 60.3652C29.3174 59.4056 29.3604 58.3242 29.4033 57.1211C29.1455 57.0495 28.902 57.0566 28.6729 57.1426C28.4437 57.2142 28.2432 57.3073 28.0713 57.4219C27.8708 57.5651 27.6774 57.737 27.4912 57.9375C27.305 58.181 27.0973 58.4961 26.8682 58.8828C26.6676 59.2122 26.4385 59.6491 26.1807 60.1934C25.9229 60.7233 25.6292 61.3822 25.2998 62.1699C25.2282 61.3392 25.1781 60.6589 25.1494 60.1289C25.1208 59.5846 25.0993 59.1621 25.085 58.8613C25.0706 58.5033 25.0635 58.2383 25.0635 58.0664C25.0635 57.9089 25.0492 57.7012 25.0205 57.4434C24.9919 57.2285 24.9561 56.9492 24.9131 56.6055C24.8701 56.2474 24.8128 55.8177 24.7412 55.3164ZM35.9775 55.3164C36.4359 55.388 36.8512 55.4525 37.2236 55.5098C37.596 55.5527 37.9183 55.5885 38.1904 55.6172C38.5055 55.6602 38.7848 55.696 39.0283 55.7246C39.3291 55.7676 39.7803 55.7174 40.3818 55.5742C40.9834 55.4167 41.6423 55.2734 42.3584 55.1445C43.0889 55.0013 43.8337 54.9225 44.5928 54.9082C45.3519 54.8796 46.0465 55.0156 46.6768 55.3164C47.307 55.6172 47.8226 55.918 48.2236 56.2188C48.6247 56.5195 48.9398 56.8418 49.1689 57.1855C49.4124 57.515 49.5843 57.8659 49.6846 58.2383C49.7848 58.6107 49.8421 59.0189 49.8564 59.4629C49.8421 60.1217 49.6846 60.7591 49.3838 61.375C49.2549 61.6328 49.083 61.9049 48.8682 62.1914C48.6676 62.4635 48.417 62.7285 48.1162 62.9863C47.8154 63.2441 47.4574 63.4876 47.042 63.7168C46.641 63.946 46.1683 64.1465 45.624 64.3184C46.154 64.4759 46.5908 64.6621 46.9346 64.877C47.2926 65.0918 47.5791 65.2923 47.7939 65.4785C48.0518 65.7077 48.2451 65.9297 48.374 66.1445C48.5316 66.4453 48.639 66.7031 48.6963 66.918C48.7536 67.1328 48.7894 67.3405 48.8037 67.541C48.8324 67.7272 48.8682 67.9206 48.9111 68.1211C48.9541 68.3216 49.0472 68.5508 49.1904 68.8086C49.305 69.0091 49.4411 69.2168 49.5986 69.4316C49.7419 69.6178 49.9066 69.8184 50.0928 70.0332C50.2933 70.248 50.5368 70.4557 50.8232 70.6562C50.4222 70.6706 50.0498 70.6777 49.7061 70.6777C49.3766 70.6777 49.0902 70.6777 48.8467 70.6777C48.5602 70.6777 48.2881 70.6706 48.0303 70.6562C47.7725 70.6419 47.4502 70.6348 47.0635 70.6348C46.734 70.6348 46.3115 70.6348 45.7959 70.6348C45.2946 70.6348 44.6859 70.6419 43.9697 70.6562C44.2848 70.4128 44.5426 70.1693 44.7432 69.9258C44.9437 69.6823 45.1012 69.4603 45.2158 69.2598C45.3447 69.0306 45.4378 68.8086 45.4951 68.5938C45.5667 68.207 45.5739 67.806 45.5166 67.3906C45.4736 67.0326 45.359 66.6387 45.1729 66.209C44.9867 65.765 44.6859 65.321 44.2705 64.877C43.8551 64.9486 43.5042 65.0059 43.2178 65.0488C42.9456 65.0775 42.7093 65.1061 42.5088 65.1348C42.2796 65.1634 42.0934 65.1849 41.9502 65.1992C41.8213 65.2135 41.6781 65.2279 41.5205 65.2422C41.3916 65.2565 41.2484 65.278 41.0908 65.3066C40.9476 65.321 40.8115 65.3424 40.6826 65.3711C40.654 65.987 40.654 66.5241 40.6826 66.9824C40.7113 67.4264 40.7471 67.7988 40.79 68.0996C40.8473 68.4577 40.9118 68.7656 40.9834 69.0234C41.055 69.2812 41.1553 69.5319 41.2842 69.7754C41.3844 69.9759 41.5133 70.1908 41.6709 70.4199C41.8285 70.6348 42.0075 70.8138 42.208 70.957C41.8356 70.957 41.4775 70.957 41.1338 70.957C40.8044 70.957 40.5036 70.9499 40.2314 70.9355C39.9163 70.9355 39.6156 70.9284 39.3291 70.9141C39.0426 70.8997 38.7204 70.8926 38.3623 70.8926C38.0615 70.8926 37.7035 70.8926 37.2881 70.8926C36.887 70.8926 36.4502 70.8997 35.9775 70.9141C36.3499 70.5273 36.6436 70.1979 36.8584 69.9258C37.0732 69.6536 37.238 69.4245 37.3525 69.2383C37.4814 69.0378 37.5602 68.8659 37.5889 68.7227C37.6175 68.4935 37.639 68.0853 37.6533 67.498C37.682 66.8965 37.7035 66.209 37.7178 65.4355C37.7321 64.6621 37.7393 63.8529 37.7393 63.0078C37.7393 62.1628 37.7321 61.375 37.7178 60.6445C37.7035 59.8997 37.6891 59.2624 37.6748 58.7324C37.6605 58.2025 37.6462 57.8659 37.6318 57.7227C37.5889 57.4648 37.4958 57.207 37.3525 56.9492C37.238 56.7201 37.0732 56.4622 36.8584 56.1758C36.6436 55.8893 36.3499 55.6029 35.9775 55.3164ZM44.0986 62.8789C44.2419 62.793 44.3636 62.707 44.4639 62.6211C44.5641 62.5352 44.6501 62.3991 44.7217 62.2129C44.7933 62.0124 44.8506 61.7331 44.8936 61.375C44.9508 61.0169 45.0153 60.5299 45.0869 59.9141C45.1442 59.2982 45.1012 58.7897 44.958 58.3887C44.8291 57.9876 44.6501 57.6725 44.4209 57.4434C44.2061 57.1999 43.9626 57.0352 43.6904 56.9492C43.4326 56.849 43.2035 56.7988 43.0029 56.7988C42.6019 56.7988 42.208 56.9206 41.8213 57.1641C41.4346 57.4076 41.141 57.737 40.9404 58.1523C40.8688 58.3385 40.8044 58.6465 40.7471 59.0762C40.7041 59.4486 40.6755 59.9642 40.6611 60.623C40.6468 61.2819 40.6683 62.1484 40.7256 63.2227C41.2699 63.3086 41.7497 63.3444 42.165 63.3301C42.5804 63.3014 42.9313 63.2513 43.2178 63.1797C43.5615 63.1081 43.8551 63.0078 44.0986 62.8789ZM53.4443 56.4551C54.1605 56.498 54.762 56.5339 55.249 56.5625C55.7503 56.5768 56.1657 56.5911 56.4951 56.6055C56.8675 56.6198 57.1826 56.6198 57.4404 56.6055C57.6982 56.5911 58.0492 56.5553 58.4932 56.498C58.8656 56.4551 59.3597 56.3906 59.9756 56.3047C60.6058 56.2044 61.3864 56.0755 62.3174 55.918C61.988 56.2474 61.7301 56.5482 61.5439 56.8203C61.3721 57.0781 61.236 57.3001 61.1357 57.4863C61.0212 57.7155 60.9424 57.9089 60.8994 58.0664C60.8708 58.2096 60.8994 58.5677 60.9854 59.1406C61.0713 59.7135 61.193 60.3939 61.3506 61.1816C61.5081 61.9551 61.68 62.7858 61.8662 63.6738C62.0524 64.5475 62.2386 65.3711 62.4248 66.1445C62.611 66.9036 62.7757 67.5553 62.9189 68.0996C63.0765 68.6296 63.1911 68.9447 63.2627 69.0449C63.4775 69.3457 63.6136 69.5462 63.6709 69.6465C63.7282 69.7324 63.8285 69.8112 63.9717 69.8828C64.029 69.9115 64.1221 69.9544 64.251 70.0117C64.3656 70.069 64.516 70.1406 64.7021 70.2266C64.9027 70.3125 65.1533 70.4128 65.4541 70.5273C64.8955 70.556 64.4157 70.5775 64.0146 70.5918C63.6136 70.5918 63.2842 70.599 63.0264 70.6133C62.7256 70.6276 62.4678 70.6419 62.2529 70.6562C62.0381 70.6562 61.7803 70.6706 61.4795 70.6992C61.2217 70.7279 60.8851 70.7565 60.4697 70.7852C60.0687 70.8138 59.596 70.8424 59.0518 70.8711C59.3382 70.6706 59.5674 70.4915 59.7393 70.334C59.9255 70.1621 60.0687 70.0189 60.1689 69.9043C60.2835 69.7611 60.3623 69.6322 60.4053 69.5176C60.4339 69.3887 60.4554 69.1953 60.4697 68.9375C60.484 68.7083 60.484 68.4076 60.4697 68.0352C60.4554 67.6484 60.4196 67.1471 60.3623 66.5312L54.7119 67.1113C54.5687 67.3548 54.4613 67.5697 54.3896 67.7559C54.318 67.9277 54.2679 68.0781 54.2393 68.207C54.1963 68.3646 54.182 68.4935 54.1963 68.5938C54.2249 68.7083 54.2751 68.8444 54.3467 69.002C54.4183 69.1452 54.5186 69.3171 54.6475 69.5176C54.7907 69.7038 54.9984 69.9258 55.2705 70.1836C54.9124 70.1693 54.5472 70.1621 54.1748 70.1621C53.8024 70.1621 53.4587 70.1693 53.1436 70.1836C52.7712 70.1979 52.4059 70.2122 52.0479 70.2266C51.6898 70.2409 51.2816 70.2624 50.8232 70.291C50.4365 70.3197 49.9854 70.3555 49.4697 70.3984C48.9398 70.4271 48.374 70.4701 47.7725 70.5273C48.1449 70.3555 48.46 70.1836 48.7178 70.0117C48.9756 69.8255 49.1904 69.6536 49.3623 69.4961C49.5628 69.3242 49.7347 69.1595 49.8779 69.002C49.9782 68.8587 50.1787 68.5293 50.4795 68.0137C50.7803 67.4837 51.1169 66.8607 51.4893 66.1445C51.876 65.4284 52.277 64.6621 52.6924 63.8457C53.1221 63.0293 53.5088 62.263 53.8525 61.5469C54.1963 60.8164 54.4756 60.1862 54.6904 59.6562C54.9053 59.1263 55.0127 58.7826 55.0127 58.625C54.984 58.4388 54.9124 58.2311 54.7979 58.002C54.6976 57.8014 54.54 57.5723 54.3252 57.3145C54.1247 57.0566 53.8311 56.7702 53.4443 56.4551ZM60.1045 64.9414C60.0186 64.4401 59.9398 64.0104 59.8682 63.6523C59.7965 63.2799 59.7393 62.972 59.6963 62.7285C59.639 62.4421 59.596 62.1914 59.5674 61.9766C59.5244 61.776 59.4743 61.5182 59.417 61.2031C59.3597 60.931 59.2881 60.5944 59.2021 60.1934C59.1305 59.778 59.0374 59.2839 58.9229 58.7109C58.1064 60.3438 57.4691 61.6113 57.0107 62.5137C56.5667 63.4017 56.2445 64.0534 56.0439 64.4688C55.8005 64.9557 55.6644 65.2422 55.6357 65.3281L60.1045 64.9414ZM62.2529 55.5742C63.2126 55.6172 63.9574 55.6387 64.4873 55.6387H65.2822C65.5114 55.6387 65.7979 55.6315 66.1416 55.6172C66.4281 55.6029 66.7933 55.5957 67.2373 55.5957C67.6813 55.5814 68.2113 55.5599 68.8271 55.5312C68.5407 55.7318 68.3115 55.9251 68.1396 56.1113C67.9678 56.2975 67.8317 56.4622 67.7314 56.6055C67.6169 56.7773 67.5381 56.9349 67.4951 57.0781C67.3949 57.4505 67.3519 57.959 67.3662 58.6035C67.3949 59.2337 67.4593 59.9212 67.5596 60.666C67.6598 61.3965 67.7816 62.1413 67.9248 62.9004C68.068 63.6595 68.2113 64.347 68.3545 64.9629C68.512 65.5788 68.6481 66.0872 68.7627 66.4883C68.8916 66.875 68.9847 67.0684 69.042 67.0684C69.0993 67.0684 69.2067 66.8607 69.3643 66.4453C69.5361 66.0299 69.7295 65.5072 69.9443 64.877C70.1592 64.2324 70.3812 63.5378 70.6104 62.793C70.8395 62.0339 71.0472 61.3177 71.2334 60.6445C71.4339 59.957 71.5986 59.3698 71.7275 58.8828C71.8564 58.3815 71.9209 58.0736 71.9209 57.959C71.9066 57.8014 71.8564 57.6367 71.7705 57.4648C71.6989 57.3073 71.57 57.1283 71.3838 56.9277C71.2119 56.7129 70.9684 56.4694 70.6533 56.1973C71.0973 56.1829 71.4769 56.1686 71.792 56.1543C72.1214 56.14 72.4007 56.1328 72.6299 56.1328H73.2959H76.7334C76.3753 56.3763 76.0674 56.6126 75.8096 56.8418C75.5661 57.071 75.3656 57.2858 75.208 57.4863C75.0218 57.7155 74.8643 57.9303 74.7354 58.1309C74.5921 58.4316 74.3558 59.0833 74.0264 60.0859C73.8831 60.5156 73.7184 61.0384 73.5322 61.6543C73.346 62.2702 73.124 63.0078 72.8662 63.8672C72.6084 64.7266 72.3219 65.722 72.0068 66.8535C71.6917 67.9707 71.3337 69.2454 70.9326 70.6777L67.9463 71.0645C67.5882 69.9473 67.2731 68.9303 67.001 68.0137C66.7432 67.0827 66.514 66.2878 66.3135 65.6289C66.0843 64.8555 65.891 64.1608 65.7334 63.5449C65.5186 62.8001 65.3324 62.0482 65.1748 61.2891C65.0316 60.5156 64.9027 59.821 64.7881 59.2051C64.6878 58.5749 64.5947 58.0521 64.5088 57.6367C64.4229 57.2214 64.3298 56.9779 64.2295 56.9062C64.1436 56.8346 64.0146 56.7415 63.8428 56.627C63.6852 56.5267 63.4847 56.3978 63.2412 56.2402C62.9834 56.0684 62.654 55.8464 62.2529 55.5742ZM73.9834 56.3262C74.986 56.3548 75.8167 56.3763 76.4756 56.3906C77.1488 56.3906 77.693 56.3906 78.1084 56.3906H79.2471H85.6494C85.6781 56.6771 85.6995 56.9564 85.7139 57.2285C85.7425 57.4863 85.7568 57.7155 85.7568 57.916C85.7568 58.1595 85.7497 58.3815 85.7354 58.582C85.721 58.7826 85.6995 58.9974 85.6709 59.2266C85.6423 59.4271 85.6136 59.6419 85.585 59.8711C85.5563 60.1003 85.5062 60.3366 85.4346 60.5801C85.234 59.8066 84.9619 59.2194 84.6182 58.8184C84.2887 58.4173 83.9521 58.1237 83.6084 57.9375C83.2074 57.7227 82.7848 57.6081 82.3408 57.5938C81.7536 57.6224 81.2952 57.6725 80.9658 57.7441C80.6364 57.8158 80.3786 57.916 80.1924 58.0449C80.0062 58.1738 79.863 58.3242 79.7627 58.4961C79.6768 58.6536 79.5837 58.8327 79.4834 59.0332C79.3975 59.2051 79.3187 59.4701 79.2471 59.8281C79.1755 60.1289 79.1038 60.5371 79.0322 61.0527C78.9749 61.5684 78.9105 62.2344 78.8389 63.0508C79.2256 62.9362 79.5335 62.8288 79.7627 62.7285C80.0062 62.6283 80.1995 62.5423 80.3428 62.4707C80.5003 62.3848 80.6149 62.306 80.6865 62.2344C80.7438 62.1484 80.8298 61.9909 80.9443 61.7617C81.0303 61.5612 81.1449 61.2891 81.2881 60.9453C81.4456 60.6016 81.6318 60.1289 81.8467 59.5273C81.8753 60.1862 81.8896 60.7376 81.8896 61.1816C81.8896 61.6113 81.8968 61.9622 81.9111 62.2344C81.9111 62.5495 81.9183 62.8001 81.9326 62.9863V63.8027C81.9326 64.1035 81.9326 64.5117 81.9326 65.0273C81.9469 65.5286 81.9684 66.166 81.9971 66.9395C81.8252 66.4095 81.6676 65.9941 81.5244 65.6934C81.3955 65.3783 81.2809 65.1419 81.1807 64.9844C81.0661 64.7982 80.9658 64.6693 80.8799 64.5977C80.7796 64.569 80.6436 64.5404 80.4717 64.5117C80.3141 64.4974 80.1136 64.4902 79.8701 64.4902C79.641 64.4902 79.3473 64.526 78.9893 64.5977C78.9463 65.3854 78.9391 66.0228 78.9678 66.5098C79.0107 66.9824 79.068 67.3477 79.1396 67.6055C79.2113 67.9062 79.2972 68.1211 79.3975 68.25C79.5264 68.3789 79.7842 68.4863 80.1709 68.5723C80.5576 68.6439 80.9945 68.6725 81.4814 68.6582C81.9827 68.6296 82.4912 68.5436 83.0068 68.4004C83.5225 68.2572 83.9808 68.0208 84.3818 67.6914C84.6826 67.4193 85.0049 67.0755 85.3486 66.6602C85.6351 66.3021 85.9502 65.8509 86.2939 65.3066C86.652 64.7624 87.0029 64.1035 87.3467 63.3301C87.2894 63.9746 87.2464 64.5117 87.2178 64.9414C87.2035 65.3568 87.182 65.6934 87.1533 65.9512C87.1247 66.252 87.1032 66.4811 87.0889 66.6387C87.0889 66.8105 87.0674 67.054 87.0244 67.3691C86.9958 67.6413 86.9456 68.0137 86.874 68.4863C86.8167 68.9447 86.738 69.5319 86.6377 70.248C85.9645 70.2624 85.3271 70.2767 84.7256 70.291C84.124 70.291 83.5941 70.2982 83.1357 70.3125C82.5915 70.3268 82.0902 70.3411 81.6318 70.3555C81.1592 70.3555 80.6364 70.377 80.0635 70.4199C79.5622 70.4486 78.9678 70.4915 78.2803 70.5488C77.6071 70.6061 76.8623 70.6849 76.0459 70.7852C76.1175 69.8112 76.1676 68.8945 76.1963 68.0352C76.2393 67.1615 76.2679 66.3952 76.2822 65.7363C76.2965 64.9629 76.2965 64.2467 76.2822 63.5879C76.3538 61.9408 76.3252 60.6087 76.1963 59.5918C76.0674 58.5749 75.917 57.9232 75.7451 57.6367C75.6592 57.5365 75.5374 57.4147 75.3799 57.2715C75.251 57.1569 75.0719 57.0208 74.8428 56.8633C74.6136 56.7057 74.3271 56.5267 73.9834 56.3262ZM88.0127 55.4238C88.4281 55.4954 88.7933 55.5456 89.1084 55.5742C89.4378 55.6029 89.71 55.6243 89.9248 55.6387C90.1826 55.653 90.4046 55.6602 90.5908 55.6602C90.777 55.6602 91.042 55.6458 91.3857 55.6172C91.6722 55.5885 92.0446 55.5527 92.5029 55.5098C92.9756 55.4668 93.5557 55.3952 94.2432 55.2949C94.0426 55.3522 93.8564 55.5169 93.6846 55.7891C93.527 56.0469 93.3838 56.3262 93.2549 56.627C93.0973 56.985 92.9613 57.3789 92.8467 57.8086C92.7464 58.1953 92.6175 58.7253 92.46 59.3984C92.3167 60.0716 92.1735 60.8021 92.0303 61.5898C91.9014 62.3776 91.8011 63.1797 91.7295 63.9961C91.6579 64.7982 91.6436 65.5358 91.6865 66.209C91.7438 66.8822 91.8799 67.4408 92.0947 67.8848C92.3096 68.3145 92.639 68.5436 93.083 68.5723C93.7562 68.6296 94.3148 68.6367 94.7588 68.5938C95.2171 68.5365 95.5895 68.4577 95.876 68.3574C96.1624 68.2572 96.3844 68.1426 96.542 68.0137C96.6995 67.8704 96.8213 67.7344 96.9072 67.6055C97.1364 67.276 97.3727 66.8535 97.6162 66.3379C97.8597 65.8223 98.0745 65.3281 98.2607 64.8555C98.4613 64.3828 98.626 63.9818 98.7549 63.6523C98.8838 63.3229 98.9482 63.1654 98.9482 63.1797C98.9482 63.2083 98.9411 63.373 98.9268 63.6738C98.9268 63.9603 98.9196 64.3112 98.9053 64.7266C98.9053 65.1276 98.8981 65.5501 98.8838 65.9941C98.8838 66.4382 98.8766 66.8177 98.8623 67.1328C98.848 67.3906 98.8337 67.6771 98.8193 67.9922C98.805 68.2643 98.7907 68.5866 98.7764 68.959C98.7764 69.3314 98.762 69.7396 98.7334 70.1836C98.1318 70.1406 97.5589 70.112 97.0146 70.0977C96.4704 70.0833 95.9906 70.0762 95.5752 70.0762C95.0882 70.0762 94.637 70.0833 94.2217 70.0977C93.7777 70.112 93.262 70.1335 92.6748 70.1621C92.1735 70.1908 91.5505 70.2266 90.8057 70.2695C90.0609 70.2982 89.2015 70.3411 88.2275 70.3984C88.3421 70.1979 88.4352 70.0117 88.5068 69.8398C88.5928 69.668 88.6572 69.5247 88.7002 69.4102C88.7575 69.2669 88.7933 69.1452 88.8076 69.0449C88.8936 68.5866 88.9652 68.0065 89.0225 67.3047C89.0798 66.5885 89.1227 65.8294 89.1514 65.0273C89.1943 64.2253 89.2158 63.4089 89.2158 62.5781C89.2301 61.7331 89.2301 60.9525 89.2158 60.2363C89.2015 59.5202 89.1729 58.8971 89.1299 58.3672C89.1012 57.8372 89.0583 57.472 89.001 57.2715C88.9294 57.0423 88.8434 56.8132 88.7432 56.584C88.6572 56.3835 88.5498 56.1829 88.4209 55.9824C88.3063 55.7676 88.1702 55.5814 88.0127 55.4238Z" fill="white"/>
</svg>
